<?xml version="1.0" encoding="utf-8"?>
<!-- Generator: Adobe Illustrator 23.0.3, SVG Export Plug-In . SVG Version: 6.00 Build 0)  -->
<svg version="1.1" id="Capa_1" xmlns="http://www.w3.org/2000/svg" xmlns:xlink="http://www.w3.org/1999/xlink" x="0px" y="0px"
	 viewBox="0 0 550 550" style="enable-background:new 0 0 550 550;" xml:space="preserve">
<style type="text/css">
	.st0{fill:#1F4EBB;}
	.st1{fill:url(#SVGID_1_);}
	.st2{fill:url(#SVGID_2_);}
	.st3{fill:#9EBDEF;}
	.st4{fill:#6081DF;}
</style>
<path class="st0" d="M509.9,469.8H40.1c-15.8,0-28.6-12.8-28.6-28.6V85.9c0-15.8,12.8-28.6,28.6-28.6H173c17.4,0,33.9,7.9,44.7,21.5
	l28.6,35.8h263.5c15.8,0,28.6,12.8,28.6,28.6v297.9C538.5,457,525.7,469.8,509.9,469.8z"/>
<linearGradient id="SVGID_1_" gradientUnits="userSpaceOnUse" x1="-289.8727" y1="655.9247" x2="-277.1226" y2="637.7886" gradientTransform="matrix(11.4583 0 0 -11.4583 3388.5 7621.833)">
	<stop  offset="0" style="stop-color:#FBFEF3"/>
	<stop  offset="0.909" style="stop-color:#E2E4E3"/>
</linearGradient>
<path class="st1" d="M22.9,286.5h229.2V126H45.8c-12.7,0-22.9,10.3-22.9,22.9V286.5z"/>
<linearGradient id="SVGID_2_" gradientUnits="userSpaceOnUse" x1="-293.7236" y1="646.1782" x2="-273.7236" y2="646.1782" gradientTransform="matrix(11.4583 0 0 -11.4583 3388.5 7621.833)">
	<stop  offset="0" style="stop-color:#FBFEF3"/>
	<stop  offset="0.909" style="stop-color:#E2E4E3"/>
</linearGradient>
<path class="st2" d="M22.9,297.9h229.2V137.5H45.8c-12.7,0-22.9,10.3-22.9,22.9V297.9z"/>
<path class="st0" d="M11.5,434v7.2c0,15.8,12.8,28.6,28.6,28.6h469.8c15.8,0,28.6-12.8,28.6-28.6V434H11.5z"/>
<path class="st3" d="M509.9,126H246.4l-14.2,9.4c-13.2,8.8-28.6,13.5-44.5,13.5H40.1c-15.8,0-28.6,12.8-28.6,28.6v252.1
	c0,15.8,12.8,28.6,28.6,28.6h469.8c15.8,0,28.6-12.8,28.6-28.6v-275C538.5,138.9,525.7,126,509.9,126z"/>
<path class="st4" d="M509.9,458.3H40.1c-15.8,0-28.6-12.8-28.6-28.6V189.1c0-15.8,12.8-28.6,28.6-28.6H192
	c15.8,0,31.3-4.7,44.5-13.5l14.2-9.4h259.2c15.8,0,28.6,12.8,28.6,28.6v263.5C538.5,445.5,525.7,458.3,509.9,458.3z"/>
</svg>
