<svg xmlns="http://www.w3.org/2000/svg" viewBox="0 0 1440 78.36"><defs><style>.cls-1{fill:#00b4db;}</style></defs><title>background_2</title><g id="Capa_2" data-name="Capa 2"><g id="Capa_1-2" data-name="Capa 1"><path class="cls-1" d="M0,46c25,2.35,60.06,5.54,102,9,97.77,8.07,146.67,12,188.94,13.23,52,1.44,133.45,1.56,185.23,4.36,1.74.09,11.37.62,24.78,1.32,36.24,1.91,54.37,2.86,67.13,3.37,35.19,1.42,62,1.16,97.89.81,13.74-.14,24-.34,56-1.09,71.76-1.68,107.64-2.52,119-3,16.13-.68,56.42-3.78,137-10,0,0,61.78-4.77,110.49-10l3.07-.33c5.29-.56,16-1.66,29.41-2.84,10.67-.93,23.12-1.91,37-2.79,32.31-2,59-2.75,77-3,36.72-.87,68.18.32,93,2,39.84,2.7,67.41,7,74,8,15.39,2.43,28.35,5,38,7V0H0Z"/></g></g></svg>